<?xml version="1.0" standalone="no"?>
<!DOCTYPE svg PUBLIC "-//W3C//DTD SVG 20010904//EN"
 "http://www.w3.org/TR/2001/REC-SVG-20010904/DTD/svg10.dtd">
<svg version="1.0" xmlns="http://www.w3.org/2000/svg"
 width="225.000000pt" height="225.000000pt" viewBox="0 0 225.000000 225.000000"
 preserveAspectRatio="xMidYMid meet">
<metadata>
Created by potrace 1.14, written by Peter Selinger 2001-2017
</metadata>
<g transform="translate(0.000000,225.000000) scale(0.100000,-0.100000)"
fill="#000000" stroke="none">
<path d="M804 1422 c-6 -4 -37 -57 -67 -118 -53 -106 -55 -113 -38 -128 10 -9
22 -16 27 -16 5 1 -2 10 -15 20 -13 11 -18 20 -12 20 7 0 9 5 6 10 -3 6 -1 10
5 10 6 0 8 5 4 11 -9 15 53 -21 68 -39 8 -10 6 -11 -8 -6 -16 6 -17 5 -6 -7
11 -12 16 -11 30 7 9 12 22 30 28 40 10 16 12 15 29 -13 10 -18 23 -29 29 -26
5 4 7 -1 3 -10 -8 -20 12 -69 24 -61 5 3 9 10 9 15 0 6 -5 7 -12 3 -6 -4 -1 9
11 30 13 20 21 39 18 42 -2 3 -14 -10 -26 -28 -11 -18 -21 -28 -21 -21 0 6 5
15 10 18 6 3 10 11 10 16 0 6 -4 7 -10 4 -5 -3 -10 -1 -10 5 0 6 -5 8 -12 4
-6 -4 -1 10 12 32 26 44 48 70 31 37 -15 -30 -13 -42 3 -20 12 15 14 16 20 2
3 -8 3 -23 0 -33 -5 -15 -4 -15 10 2 13 16 13 20 1 33 -8 8 -18 26 -21 41 -8
31 -53 113 -69 124 -5 4 -19 8 -30 8 -11 0 -25 -4 -31 -8z"/>
<path d="M1216 1408 c-14 -19 -16 -64 -16 -289 0 -245 1 -267 18 -282 16 -14
44 -17 190 -17 182 0 210 5 255 48 41 38 58 77 56 121 l-3 39 -40 -6 c-63 -7
-79 -22 -21 -18 41 3 44 2 15 -4 l-35 -7 40 -3 c40 -2 39 -2 -14 -11 -75 -13
-79 -22 -6 -15 l60 5 -75 -16 c-41 -8 -130 -17 -197 -20 l-121 -4 -5 28 c-5
23 -4 75 2 116 2 11 249 9 256 -3 4 -7 27 -8 58 -4 77 10 81 14 51 58 -22 32
-24 42 -15 63 15 33 14 107 -3 147 -8 18 -31 46 -52 62 -32 25 -48 29 -112 33
-75 3 -75 3 -68 -20 3 -13 9 -37 11 -54 4 -24 2 -22 -10 10 l-14 40 4 -40 c3
-29 2 -35 -5 -20 l-9 20 -1 -20 c-1 -14 -5 -10 -15 15 -14 36 -20 23 -9 -18 5
-18 13 -22 38 -21 73 4 107 -2 126 -21 44 -44 4 -112 -63 -105 -18 2 -62 4
-99 4 l-66 1 -4 53 c-3 34 0 56 8 63 7 6 11 21 8 35 -4 20 -3 19 10 -6 18 -38
19 -12 1 35 -10 25 -14 29 -15 15 -1 -16 -3 -15 -12 8 -8 23 -15 27 -48 27
-29 0 -43 -6 -54 -22z m62 -10 c9 -9 12 -78 12 -250 l0 -238 123 0 c136 0 173
-11 151 -47 -10 -16 -29 -18 -150 -21 -76 -1 -149 0 -161 3 l-23 5 0 274 c0
270 1 281 31 285 3 1 10 -4 17 -11z m311 -16 c92 -68 92 -188 0 -250 -23 -16
-45 -22 -69 -20 -30 3 -35 7 -35 28 0 20 6 25 35 31 44 9 70 41 70 87 0 39
-32 82 -61 82 -32 0 -49 12 -49 34 0 13 3 26 8 30 11 12 74 -2 101 -22z"/>
<path d="M1245 1388 c-3 -8 -4 -131 -3 -274 3 -222 5 -259 18 -259 8 0 16 10
18 23 2 13 -2 22 -10 22 -10 0 -10 2 0 8 18 12 13 483 -5 490 -7 2 -15 -3 -18
-10z"/>
<path d="M1288 875 l-5 -25 134 0 c113 0 135 2 140 16 10 27 -17 34 -143 34
l-122 0 -4 -25z"/>
<path d="M1492 1379 c2 -17 10 -25 30 -27 76 -9 105 -106 49 -163 -17 -17 -40
-29 -55 -29 -19 0 -26 -5 -26 -20 0 -27 51 -27 95 0 110 68 70 236 -60 257
-34 6 -37 4 -33 -18z"/>
<path d="M1346 1405 c4 -11 13 -36 20 -55 13 -34 14 -34 9 -4 -3 16 -2 41 3
55 9 23 10 23 17 -11 8 -34 9 -34 16 -10 10 35 10 60 -1 35 -7 -17 -9 -18 -9
-2 -1 13 -8 17 -31 15 -25 -2 -29 -5 -24 -23z m21 -7 c-3 -8 -6 -5 -6 6 -1 11
2 17 5 13 3 -3 4 -12 1 -19z"/>
<path d="M920 1230 c-6 -12 -9 -24 -7 -27 3 -2 11 5 17 17 6 12 9 24 7 27 -3
2 -11 -5 -17 -17z"/>
<path d="M897 1233 c-4 -3 -7 -11 -7 -17 0 -6 5 -5 12 2 6 6 9 14 7 17 -3 3
-9 2 -12 -2z"/>
<path d="M946 1192 c-15 -24 -24 -47 -21 -52 3 -5 1 -19 -5 -30 -18 -33 -2
-23 25 17 30 45 33 68 4 33 -24 -30 -10 3 15 35 15 19 16 19 9 1 -5 -14 -3
-17 6 -12 14 9 -4 -28 -38 -78 -15 -22 -17 -34 -10 -48 9 -17 3 -18 -96 -18
-102 0 -105 1 -95 19 9 17 4 24 -34 50 -25 17 -47 31 -51 31 -3 0 -35 -61 -72
-135 -64 -131 -66 -135 -49 -160 34 -51 92 -26 126 55 l12 30 164 0 164 0 15
-37 c22 -52 44 -73 76 -73 20 0 34 8 45 26 17 25 16 28 -73 207 l-90 182 -27
-43z m108 -188 c9 -8 16 -17 16 -19 0 -2 -7 -11 -16 -19 -13 -14 -47 -16 -214
-16 -109 0 -205 3 -214 6 -19 7 -21 50 -3 57 6 3 103 6 214 6 171 1 204 -1
217 -15z"/>
<path d="M623 995 c-3 -9 -1 -21 4 -26 5 -5 93 -8 214 -7 196 3 204 4 204 23
0 19 -8 20 -208 23 -182 2 -208 0 -214 -13z"/>
<path d="M724 1211 c4 -6 1 -11 -6 -11 -7 0 1 -11 17 -25 17 -13 35 -24 40
-24 6 0 -3 11 -20 25 -16 13 -22 22 -12 18 24 -9 21 3 -4 17 -15 8 -19 8 -15
0z"/>
<path d="M673 1173 c4 -6 2 -13 -4 -15 -6 -2 10 -18 36 -37 25 -18 49 -31 52
-27 3 3 -11 15 -31 27 -20 12 -34 24 -31 27 3 3 11 0 17 -6 14 -14 32 -16 23
-2 -4 6 1 7 11 3 11 -4 13 -8 6 -11 -14 -4 -6 -22 9 -22 6 0 7 5 4 10 -3 6 0
10 7 10 7 0 2 7 -10 16 -12 8 -26 12 -32 9 -5 -3 -22 2 -37 12 -15 10 -24 13
-20 6z"/>
<path d="M1653 1061 c-40 -7 -70 -21 -44 -21 7 0 10 -4 7 -9 -7 -11 72 -2 94
10 13 7 13 8 0 9 -13 0 -13 1 0 10 18 12 10 12 -57 1z m25 -18 c-10 -2 -26 -2
-35 0 -10 3 -2 5 17 5 19 0 27 -2 18 -5z"/>
<path d="M1618 983 c7 -3 16 -2 19 1 4 3 -2 6 -13 5 -11 0 -14 -3 -6 -6z"/>
</g>
</svg>
